<svg data-v-0dd9719b="" version="1.0" xmlns="http://www.w3.org/2000/svg" xmlns:xlink="http://www.w3.org/1999/xlink" width="100%" height="100%" viewBox="0 0 340.000000 250.000000" preserveAspectRatio="xMidYMid meet" color-interpolation-filters="sRGB" style="margin: auto;"> <rect data-v-0dd9719b="" x="0" y="0" width="100%" height="100%" fill="#ffffff" fill-opacity="1" class="background"></rect> <rect data-v-0dd9719b="" x="0" y="0" width="100%" height="100%" fill="url(#watermark)" fill-opacity="1" class="watermarklayer"></rect> <g data-v-0dd9719b="" fill="#303947" class="icon-text-wrapper icon-svg-group iconsvg" transform="translate(63.51393127441406,93.94311904907227)"><g fill="#fc4349" class="iconsvg-imagesvg icon_container" transform="translate(0,0)"><rect fill="#303947" fill-opacity="0" stroke-width="2" x="0" y="0" width="62.113761467889915" height="62.113761467889915" class="image-rect"></rect> <svg viewBox="0 0 60 60" x="0" y="0" width="62.113761467889915" height="62.113761467889915" class="image-svg-svg bn" style="overflow: visible;"><g hollow-target="iconBnOutline"><g mask="url(#966734cd-a86e-4e45-b7e1-2a075401c401)"><svg fill="#000000" xmlns="http://www.w3.org/2000/svg" xmlns:xlink="http://www.w3.org/1999/xlink" version="1.1" x="0" y="0" viewBox="5 5 90 90" enable-background="new 0 0 100 100" xml:space="preserve" style="overflow: visible;" width="60" height="60" filtersec="colorsf5283491206" filter="url(#xA-RbUgcU057V68ry6ao6)"><g transform="scale(1, 1) skewX(0)"><path d="M75.921,5H24.305C13.752,5,5,13.752,5,24.305v51.616C5,86.472,13.752,95,24.305,95h51.616C86.472,95,95,86.472,95,75.921  V24.305C95,13.752,86.472,5,75.921,5z"></path></g><defs><filter id="xA-RbUgcU057V68ry6ao6"><feColorMatrix type="matrix" values="0 0 0 0 0.984375  0 0 0 0 0.26171875  0 0 0 0 0.28515625  0 0 0 1 0"></feColorMatrix></filter></defs></svg></g> <g filter="url(#colors9920791270)"><svg xmlns="http://www.w3.org/2000/svg" xmlns:xlink="http://www.w3.org/1999/xlink" viewBox="0 0 39.24 58.03200000000001" width="33" height="33" x="13.5" y="13.5" class="image-svg-letter"><path transform="translate(-2.3040000000000003 51.76800000000001)" d="M18.00 6.26Q12.74 6.26 9.22 3.74Q5.69 1.22 4.00-2.81Q2.30-6.84 2.30-11.52L2.30-11.52Q2.30-20.81 6.88-30.20Q11.45-39.60 18.58-45.68Q25.70-51.77 32.90-51.77L32.90-51.77Q36.29-51.77 38.34-50.18Q40.39-48.60 40.39-45.22L40.39-45.22Q40.39-42.34 39.06-38.59Q37.73-34.85 35.68-32.22Q33.62-29.59 31.54-29.59L31.54-29.59Q29.74-29.59 28.58-31.82L28.58-31.82Q31.32-34.85 33.88-39.02Q36.43-43.20 36.43-45.79L36.43-45.79Q36.43-48.60 33.19-48.60L33.19-48.60Q28.15-48.60 22.50-42.48Q16.85-36.36 13.07-27.43Q9.29-18.50 9.29-10.87L9.29-10.87Q9.29-5.11 11.88-1.15Q14.47 2.81 19.73 2.81L19.73 2.81Q23.47 2.81 27.36 0.68Q31.25-1.44 34.49-4.97Q37.73-8.50 39.67-12.60L39.67-12.60L41.54-11.38Q37.44-3.60 31.36 1.33Q25.27 6.26 18.00 6.26L18.00 6.26Z"></path></svg></g></g><mask id="966734cd-a86e-4e45-b7e1-2a075401c401"><g fill="white"><svg xmlns="http://www.w3.org/2000/svg" xmlns:xlink="http://www.w3.org/1999/xlink" version="1.1" x="0" y="0" viewBox="5 5 90 90" enable-background="new 0 0 100 100" xml:space="preserve" style="overflow: visible;" width="60" height="60" filtersec="colorsf5283491206"><g transform="scale(1, 1) skewX(0)"><path d="M75.921,5H24.305C13.752,5,5,13.752,5,24.305v51.616C5,86.472,13.752,95,24.305,95h51.616C86.472,95,95,86.472,95,75.921  V24.305C95,13.752,86.472,5,75.921,5z"></path></g><defs></defs></svg></g> <g fill="black" filter="url(#c882c8ce-4c86-4ef7-bd43-2359d0d561e5)"><svg xmlns="http://www.w3.org/2000/svg" xmlns:xlink="http://www.w3.org/1999/xlink" viewBox="0 0 39.24 58.03200000000001" width="33" height="33" x="13.5" y="13.5" class="image-svg-letter"><path transform="translate(-2.3040000000000003 51.76800000000001)" d="M18.00 6.26Q12.74 6.26 9.22 3.74Q5.69 1.22 4.00-2.81Q2.30-6.84 2.30-11.52L2.30-11.52Q2.30-20.81 6.88-30.20Q11.45-39.60 18.58-45.68Q25.70-51.77 32.90-51.77L32.90-51.77Q36.29-51.77 38.34-50.18Q40.39-48.60 40.39-45.22L40.39-45.22Q40.39-42.34 39.06-38.59Q37.73-34.85 35.68-32.22Q33.62-29.59 31.54-29.59L31.54-29.59Q29.74-29.59 28.58-31.82L28.58-31.82Q31.32-34.85 33.88-39.02Q36.43-43.20 36.43-45.79L36.43-45.79Q36.43-48.60 33.19-48.60L33.19-48.60Q28.15-48.60 22.50-42.48Q16.85-36.36 13.07-27.43Q9.29-18.50 9.29-10.87L9.29-10.87Q9.29-5.11 11.88-1.15Q14.47 2.81 19.73 2.81L19.73 2.81Q23.47 2.81 27.36 0.68Q31.25-1.44 34.49-4.97Q37.73-8.50 39.67-12.60L39.67-12.60L41.54-11.38Q37.44-3.60 31.36 1.33Q25.27 6.26 18.00 6.26L18.00 6.26Z"></path></svg></g><defs><filter id="c882c8ce-4c86-4ef7-bd43-2359d0d561e5"><feGaussianBlur in="SourceGraphic" stdDeviation="1.26"></feGaussianBlur><feComponentTransfer><feFuncA type="discrete" tableValues="0 1 1 1 1 1 1 1 1 1 1 1 1 1 0"></feFuncA></feComponentTransfer></filter></defs></mask></svg> <defs><filter id="colors9920791270"><feColorMatrix type="matrix" values="0 0 0 0 0.1875  0 0 0 0 0.22265625  0 0 0 0 0.27734375  0 0 0 1 0" class="icon-fecolormatrix"></feColorMatrix></filter> <filter id="colorsf5283491206"><feColorMatrix type="matrix" values="0 0 0 0 0.99609375  0 0 0 0 0.99609375  0 0 0 0 0.99609375  0 0 0 1 0" class="icon-fecolormatrix"></feColorMatrix></filter> <filter id="colorsb7760674637"><feColorMatrix type="matrix" values="0 0 0 0 0  0 0 0 0 0  0 0 0 0 0  0 0 0 1 0" class="icon-fecolormatrix"></feColorMatrix></filter></defs></g> <g transform="translate(69.11376190185547,7.343944549560547)"><g data-gra="path-name" fill-rule="" class="tp-name iconsvg-namesvg" transform="translate(0,0)"><g transform="scale(1)"><g><path d="M9.73 1.89Q8.18 3 7.25 2.15L7.25 2.15Q6.66 1.59 6.99 0.81L6.99 0.81Q7.25 0.15 8.07-0.44L8.07-0.44Q11.36-3.26 12.58-7.21L12.58-7.21Q13.43-9.92 13.43-13.88L13.43-13.88 13.43-16.02 3.7-16.02Q2.4-16.02 2.4-17.35L2.4-17.35Q2.4-18.65 3.7-18.65L3.7-18.65 17.06-18.65 17.06-23.9 7.33-23.9Q6.03-23.9 6.03-25.23L6.03-25.23Q6.03-26.53 7.33-26.53L7.33-26.53 17.06-26.53 17.06-29.53Q17.06-30.89 18.46-30.89L18.46-30.89Q19.83-30.89 19.83-29.53L19.83-29.53 19.83-26.53 30.52-26.53Q31.82-26.53 31.82-25.23L31.82-25.23Q31.82-23.9 30.52-23.9L30.52-23.9 19.83-23.9 19.83-18.65 33.41-18.65Q34.71-18.65 34.71-17.35L34.71-17.35Q34.71-16.02 33.41-16.02L33.41-16.02 24.46-16.02 24.46-0.55Q24.46 0.67 24.12 1.29 23.79 1.92 22.98 2.29L22.98 2.29Q21.9 2.7 19.05 2.77L19.05 2.77Q17.39 2.77 16.98 1.66L16.98 1.66Q16.69 0.81 17.28 0.41L17.28 0.41Q17.76 0.04 18.8 0.07L18.8 0.07Q20.57 0.07 20.9 0.04L20.9 0.04Q21.31 0.04 21.46-0.09 21.61-0.22 21.61-0.59L21.61-0.59 21.61-16.02 16.17-16.02 16.17-13.84Q16.17-9.18 15.13-5.96L15.13-5.96Q13.62-1.33 9.73 1.89L9.73 1.89ZM4.48-3.85Q3.66-3.03 2.7-3.74L2.7-3.74Q1.52-4.63 2.63-5.7L2.63-5.7Q5.29-8.47 6.88-12.1L6.88-12.1Q7.29-13.28 8.62-12.95L8.62-12.95Q10.06-12.58 9.47-11.21L9.47-11.21Q8.47-9.21 7.29-7.44L7.29-7.44Q5.88-5.33 4.48-3.85L4.48-3.85ZM34.24-3.55Q33.56-3.22 33.13-3.33 32.71-3.44 32.38-4.11L32.38-4.11Q31.56-5.66 30.41-7.47L30.41-7.47Q28.97-9.77 27.9-11.17L27.9-11.17Q27.05-12.36 28.38-12.99L28.38-12.99Q29.41-13.43 30.12-12.58L30.12-12.58Q33.34-8.36 35-5.22L35-5.22Q35.3-4.59 35.11-4.22L35.11-4.22Q34.93-3.88 34.24-3.55ZM63.45 2.59L63.45 2.59Q61.72 2.59 61.31 1.44L61.31 1.44Q61.01 0.55 61.61 0.15L61.61 0.15Q62.12-0.22 63.23-0.15L63.23-0.15Q66.16-0.15 66.69-0.18 67.23-0.22 67.43-0.43 67.64-0.63 67.64-1.18L67.64-1.18 67.64-10.91Q67.27-10.69 66.53-10.25L66.53-10.25Q60.2-6.51 57.5-5L57.5-5Q56.42-4.4 55.76-5.62L55.76-5.62Q55.35-6.33 55.39-6.66L55.39-6.66Q55.43-7.07 56.02-7.36L56.02-7.36Q60.35-9.55 67.64-13.65L67.64-13.65 67.64-25.6Q67.64-26.38 66.86-26.38L66.86-26.38 57.28-26.38Q55.94-26.38 55.94-27.71 55.94-29.04 57.28-29.04L57.28-29.04 68.19-29.04Q69.15-29.04 69.75-28.45 70.34-27.86 70.34-26.9L70.34-26.9 70.34-1.15Q70.34 0.3 69.95 1.04 69.56 1.78 68.6 2.07L68.6 2.07Q67.49 2.52 63.45 2.59ZM47.43 2.55L47.43 2.55Q45.73 2.55 45.33 1.44L45.33 1.44Q45.03 0.55 45.66 0.15L45.66 0.15Q46.18-0.22 47.29-0.18L47.29-0.18Q49.51-0.11 50.17-0.18L50.17-0.18Q50.69-0.22 50.89-0.41 51.1-0.59 51.1-1.11L51.1-1.11 51.1-10.17Q43.99-5.99 40.77-4.25L40.77-4.25Q39.7-3.66 39.15-4.96L39.15-4.96Q38.89-5.59 38.92-5.92L38.92-5.92Q38.96-6.33 39.52-6.59L39.52-6.59Q44.03-8.92 51.1-12.8L51.1-12.8 51.1-25.6Q51.1-26.38 50.32-26.38L50.32-26.38 40.96-26.38Q39.63-26.38 39.63-27.71 39.63-29.04 40.96-29.04L40.96-29.04 51.61-29.04Q52.58-29.04 53.17-28.45 53.76-27.86 53.76-26.9L53.76-26.9 53.76-1.11Q53.76 0.3 53.41 1 53.06 1.7 52.17 2.03L52.17 2.03Q50.95 2.48 47.43 2.55ZM46.73-15.47Q45.62-14.69 44.95-15.65 44.29-16.61 43.18-17.98L43.18-17.98Q41.88-19.65 41.11-20.5L41.11-20.5Q40.18-21.53 41.44-22.27L41.44-22.27Q42.33-22.79 43.07-22.02L43.07-22.02Q45.29-19.61 47.17-17.09L47.17-17.09Q47.58-16.58 47.43-16.21L47.43-16.21Q47.32-15.87 46.73-15.47L46.73-15.47ZM63.01-15.8Q61.83-14.95 61.16-15.98L61.16-15.98Q61.05-16.13 60.83-16.43L60.83-16.43Q59.9-17.61 59.38-18.24L59.38-18.24Q58.79-18.98 57.46-20.54L57.46-20.54Q57.31-20.72 57.24-20.79L57.24-20.79Q56.35-21.76 57.5-22.5L57.5-22.5Q58.42-23.13 59.16-22.31L59.16-22.31Q61.94-19.43 63.45-17.43L63.45-17.43Q63.83-16.91 63.71-16.54L63.71-16.54Q63.6-16.21 63.01-15.8L63.01-15.8ZM78.85 2.74L78.85 2.74Q77.52 2.74 77.52 1.44L77.52 1.44 77.52-26.57Q77.52-27.53 78.11-28.12 78.7-28.71 79.66-28.71L79.66-28.71 105.52-28.71Q106.49-28.71 107.08-28.12 107.67-27.53 107.67-26.57L107.67-26.57 107.67-0.74Q107.67 0.52 107.32 1.2 106.97 1.89 106.12 2.26L106.12 2.26Q105.04 2.7 101.86 2.7L101.86 2.7Q100.16 2.7 99.79 1.66L99.79 1.66Q99.49 0.85 100.08 0.44L100.08 0.44Q100.57 0.11 101.64 0.15L101.64 0.15Q103.75 0.15 104.16 0.11L104.16 0.11Q105.04 0.11 105.04-0.74L105.04-0.74 105.04-25.38Q105.04-26.16 104.27-26.16L104.27-26.16 99.6-26.16Q99.31-19.31 98.68-15.02L98.68-15.02Q101.27-11.95 102.75-9.73L102.75-9.73Q103.19-9.06 102.56-8.25L102.56-8.25Q101.53-7.07 100.86-8.21L100.86-8.21Q100.01-9.47 98.12-11.91L98.12-11.91Q96.87-5.66 94.05-1.63L94.05-1.63Q93.61-1.04 93.18-0.98 92.76-0.92 92.17-1.37L92.17-1.37Q91.09-2.18 91.98-3.29L91.98-3.29Q94.94-7.14 96.13-14.36L96.13-14.36Q94.24-16.58 92.24-18.57L92.24-18.57Q91.5-19.31 92.28-20.13 93.06-20.94 93.8-20.2L93.8-20.2Q94.72-19.31 96.53-17.43L96.53-17.43Q96.9-20.72 97.09-26.16L97.09-26.16 89.91-26.16Q89.54-18.8 88.8-14.47L88.8-14.47Q90.8-12.17 92.24-9.92L92.24-9.92Q92.69-9.21 92.06-8.47L92.06-8.47Q91.06-7.33 90.35-8.47L90.35-8.47Q89.36-9.99 88.21-11.43L88.21-11.43Q86.84-5.4 84.4-1.78L84.4-1.78Q83.95-1.15 83.51-1.05 83.06-0.96 82.47-1.42 81.88-1.89 81.84-2.31 81.81-2.74 82.29-3.33L82.29-3.33Q85.03-7.14 86.28-13.84L86.28-13.84Q83.88-16.65 82.33-18.17L82.33-18.17Q81.55-18.94 82.31-19.74 83.06-20.54 83.84-19.79L83.84-19.79Q84.8-18.83 86.73-16.84L86.73-16.84Q87.21-20.9 87.43-26.16L87.43-26.16 80.92-26.16Q80.14-26.16 80.14-25.38L80.14-25.38 80.14 1.44Q80.14 2.74 78.85 2.74ZM141.6 0.67L130.39 0.67Q129.43 0.67 128.83 0.07 128.24-0.52 128.24-1.48L128.24-1.48 128.24-8.84Q128.24-9.8 128.83-10.4 129.43-10.99 130.39-10.99L130.39-10.99 141.6-10.99Q142.56-10.99 143.15-10.4 143.75-9.8 143.75-8.84L143.75-8.84 143.75-1.48Q143.75-0.52 143.15 0.07 142.56 0.67 141.6 0.67L141.6 0.67ZM114.66 0.41Q113.96 0.63 113.61 0.39 113.26 0.15 113.11-0.63L113.11-0.63Q112.96-1.33 113.15-1.7 113.33-2.07 114-2.22L114-2.22Q116.44-2.85 118.4-3.44L118.4-3.44Q118.58-3.48 118.99-3.63L118.99-3.63Q122.17-4.51 123.8-5L123.8-5Q125.1-5.33 125.32-4.07L125.32-4.07Q125.54-2.96 124.39-2.63L124.39-2.63Q118.22-0.74 114.66 0.41L114.66 0.41ZM131.57-1.78L131.57-1.78 140.34-1.78Q141.12-1.78 141.12-2.55L141.12-2.55 141.12-7.73Q141.12-8.51 140.34-8.51L140.34-8.51 131.57-8.51Q130.79-8.51 130.79-7.73L130.79-7.73 130.79-2.55Q130.79-1.78 131.57-1.78ZM114.89-7.51Q113.52-7.36 113.26-8.1L113.26-8.1Q113.07-8.77 113.52-9.47L113.52-9.47Q113.78-9.92 114.63-10.8L114.63-10.8Q115.29-11.47 115.59-11.84L115.59-11.84Q116.66-12.84 119.36-16.72L119.36-16.72Q118.62-16.61 117.4-16.43L117.4-16.43Q114.92-16.06 114.22-16.09L114.22-16.09Q113.26-16.17 113-16.95L113-16.95Q112.78-17.61 113.15-18.31L113.15-18.31Q113.33-18.76 114-19.61L114-19.61Q114.44-20.2 114.66-20.54L114.66-20.54Q117.18-24.35 119.03-29.08L119.03-29.08Q119.33-29.82 119.84-30.12L119.84-30.12Q120.4-30.49 121.03-30.15L121.03-30.15Q122.25-29.53 121.69-28.3L121.69-28.3Q119.14-22.79 116.36-18.76L116.36-18.76 120.95-19.24Q121.62-20.28 122.51-21.83L122.51-21.83Q122.84-22.42 123.47-22.46L123.47-22.46Q124.06-22.5 124.73-22.09L124.73-22.09Q125.54-21.57 125.17-20.98L125.17-20.98 125.13-20.9Q129.13-24.53 131.57-30.27L131.57-30.27Q132.02-31.45 133.24-31.12L133.24-31.12Q134.53-30.75 133.98-29.45L133.98-29.45Q133.9-29.34 133.79-29.08L133.79-29.08Q133.31-27.97 133.05-27.45L133.05-27.45 142.3-27.45Q143.49-27.45 143.89-26.77 144.3-26.08 143.78-24.79L143.78-24.79Q141.82-20.61 137.97-17.2L137.97-17.2Q141.01-15.1 144.71-13.88L144.71-13.88Q146.41-13.39 145.78-12.02L145.78-12.02Q145.3-10.84 143.93-11.36L143.93-11.36Q139.49-13.02 135.97-15.69L135.97-15.69Q132.16-12.95 127.43-11.14L127.43-11.14Q126.1-10.66 125.54-11.84L125.54-11.84Q124.91-13.21 126.54-13.73L126.54-13.73Q130.65-15.13 133.98-17.35L133.98-17.35Q131.72-19.39 129.91-22.31L129.91-22.31Q129.39-21.57 128.24-20.2L128.24-20.2 128.13-20.09Q127.47-19.39 126.65-19.46 125.84-19.54 125.21-20.35L125.21-20.35Q125.13-20.39 125.02-20.54L125.02-20.54 124.95-20.61Q121.73-15.28 117.92-10.8L117.92-10.8 123.21-11.99Q124.62-12.28 124.65-10.95L124.65-10.95Q124.69-10.43 123.73-9.88L123.73-9.88Q122.99-9.43 122.21-9.25 121.43-9.06 120.06-8.7L120.06-8.7Q115.88-7.62 114.89-7.51L114.89-7.51ZM135.9-18.83L135.9-18.83Q139.42-21.61 141.27-24.94L141.27-24.94 131.65-24.94 131.39-24.49Q132.94-21.39 135.9-18.83Z" transform="translate(-2.0919651985168457, 31.192119598388672)"></path></g> <!----> <!----> <!----> <!----> <!----> <!----> <!----></g></g> <g data-gra="path-slogan" fill-rule="" class="tp-slogan iconsvg-slogansvg" fill="#303947" transform="translate(5,40.962120056152344)"><rect x="0" height="1" y="3.2300000190734863" width="49.029191970825195"></rect> <rect height="1" y="3.2300000190734863" width="49.029191970825195" x="84.82919120788574"></rect> <g transform="translate(52.029191970825195,0)"><g transform="scale(1)"><path d="M6.72-5.04L6.72-5.04L5.78-5.04Q5.43-6.48 3.79-6.52L3.79-6.52Q1.52-6.41 1.45-3.63L1.45-3.63Q1.45-0.66 3.83-0.66L3.83-0.66Q5.47-0.70 5.86-2.66L5.86-2.66L6.80-2.66Q6.37 0.04 3.63 0.12L3.63 0.12Q0.51 0 0.43-3.59L0.43-3.59Q0.59-7.19 3.79-7.34L3.79-7.34Q6.33-7.27 6.72-5.04ZM8.91-4.22L12.66-4.22L12.66-7.15L13.63-7.15L13.63 0L12.66 0L12.66-3.32L8.91-3.32L8.91 0L7.93 0L7.93-7.15L8.91-7.15L8.91-4.22ZM15.27-7.15L16.25-7.15L16.25 0L15.27 0L15.27-7.15ZM23.67-7.15L20.98-2.89L20.98 0L20 0L20-2.89L17.30-7.15L18.44-7.15L20.47-3.71L22.54-7.15L23.67-7.15ZM29.26-2.66L29.26-7.15L30.23-7.15L30.23-2.54Q30.12 0.04 27.30 0.12L27.30 0.12Q24.69 0.04 24.57-2.38L24.57-2.38L24.57-7.15L25.55-7.15L25.55-2.66Q25.59-0.70 27.34-0.66L27.34-0.66Q29.26-0.70 29.26-2.66L29.26-2.66Z" transform="translate(-0.4296875, 7.34375)"></path></g></g></g></g></g><defs v-gra="od"></defs></svg>